<?xml version="1.0" encoding="utf-8"?>
<!-- Generated by Mocodo 4.3.2 -->
<svg width="332" height="255" viewBox="0 0 332 255" xmlns="http://www.w3.org/2000/svg">
<rect x="0" y="0" width="332" height="255" fill="#f7f7f7" stroke="none" stroke-width="0"/>

<!-- Association ADHERE -->
<g>
	<line x1="67" y1="166" x2="187" y2="166" stroke="#9970ab" stroke-width="1"/>
	<line x1="286" y1="166" x2="187" y2="166" stroke="#9970ab" stroke-width="1"/>
	<g>
		<path d="M203 140 a14 14 90 0 1 14 14 V166 h-60 V154 a14 14 90 0 1 14 -14" fill="#c2a5cf" stroke="#c2a5cf" stroke-width="0"/>
		<path d="M217 166 v12 a14 14 90 0 1 -14 14 H171 a14 14 90 0 1 -14 -14 V166 H60" fill="#e7d4e8" stroke="#e7d4e8" stroke-width="0"/>
		<rect x="157" y="140" width="60" height="52" fill="none" rx="14" stroke="#9970ab" stroke-width="1.5"/>
		<line x1="157" y1="166" x2="217" y2="166" stroke="#9970ab" stroke-width="1"/>
		<text x="164" y="158.6" fill="#000000" font-family="Trebuchet MS" font-size="14">adhere</text>
		<text x="164" y="184.6" fill="#000000" font-family="Trebuchet MS" font-size="14">payed</text>
	</g>
	<text x="130" y="183" fill="#1b7837" font-family="Verdana" font-size="12">1,N</text>
	<text x="222" y="183" fill="#1b7837" font-family="Verdana" font-size="12">0,N</text>
</g>

<!-- Entity PASSWORD -->
<g>
	<g>
		<rect x="147" y="9" width="80" height="26" fill="#a6dba0" stroke="none" stroke-width="0" opacity="1"/>
		<rect x="147" y="35" width="80" height="26" fill="#d9f0d3" stroke="none" stroke-width="0" opacity="1"/>
		<rect x="147" y="9" width="80" height="52" fill="none" stroke="#5aae61" stroke-width="1.5" opacity="1"/>
		<line x1="147" y1="35" x2="227" y2="35" stroke="#5aae61" stroke-width="1"/>
	</g>
	<text x="152" y="27.6" fill="#000000" font-family="Trebuchet MS" font-size="14">PASSWORD</text>
	<text x="152" y="53.6" fill="#000000" font-family="Trebuchet MS" font-size="14">libelle</text>
	<line x1="152" y1="56" x2="194" y2="56" stroke="#000000" stroke-width="1"/>
</g>

<!-- Entity TYPE_ADHESION -->
<g>
	<g>
		<rect x="9" y="104" width="116" height="26" fill="#a6dba0" stroke="none" stroke-width="0" opacity="1"/>
		<rect x="9" y="130" width="116" height="98" fill="#d9f0d3" stroke="none" stroke-width="0" opacity="1"/>
		<rect x="9" y="104" width="116" height="124" fill="none" stroke="#5aae61" stroke-width="1.5" opacity="1"/>
		<line x1="9" y1="130" x2="125" y2="130" stroke="#5aae61" stroke-width="1"/>
	</g>
	<text x="15" y="122.6" fill="#000000" font-family="Trebuchet MS" font-size="14">TYPE_ADHESION</text>
	<text x="14" y="148.6" fill="#000000" font-family="Trebuchet MS" font-size="14">id</text>
	<line x1="14" y1="151" x2="27" y2="151" stroke="#000000" stroke-width="1"/>
	<text x="14" y="166.6" fill="#000000" font-family="Trebuchet MS" font-size="14">libelle</text>
	<text x="14" y="184.6" fill="#000000" font-family="Trebuchet MS" font-size="14">prix</text>
	<text x="14" y="202.6" fill="#000000" font-family="Trebuchet MS" font-size="14">description</text>
	<text x="14" y="220.6" fill="#000000" font-family="Trebuchet MS" font-size="14">duree</text>
</g>

<!-- Entity USER -->
<g>
	<g>
		<rect x="249" y="86" width="74" height="26" fill="#a6dba0" stroke="none" stroke-width="0" opacity="1"/>
		<rect x="249" y="112" width="74" height="134" fill="#d9f0d3" stroke="none" stroke-width="0" opacity="1"/>
		<rect x="249" y="86" width="74" height="160" fill="none" stroke="#5aae61" stroke-width="1.5" opacity="1"/>
		<line x1="249" y1="112" x2="323" y2="112" stroke="#5aae61" stroke-width="1"/>
	</g>
	<text x="270" y="104.6" fill="#000000" font-family="Trebuchet MS" font-size="14">USER</text>
	<text x="254" y="130.6" fill="#000000" font-family="Trebuchet MS" font-size="14">mail</text>
	<line x1="254" y1="133" x2="283" y2="133" stroke="#000000" stroke-width="1"/>
	<text x="254" y="148.6" fill="#000000" font-family="Trebuchet MS" font-size="14">uuid</text>
	<text x="254" y="166.6" fill="#000000" font-family="Trebuchet MS" font-size="14">nom</text>
	<text x="254" y="184.6" fill="#000000" font-family="Trebuchet MS" font-size="14">prenom</text>
	<text x="254" y="202.6" fill="#000000" font-family="Trebuchet MS" font-size="14">naissance</text>
	<text x="254" y="220.6" fill="#000000" font-family="Trebuchet MS" font-size="14">tel</text>
	<text x="254" y="238.6" fill="#000000" font-family="Trebuchet MS" font-size="14">password</text>
</g>
</svg>