<?xml version="1.0" encoding="utf-8"?>
<!-- Generated by Mocodo 4.3.2 -->
<svg width="383" height="404" viewBox="0 0 383 404" xmlns="http://www.w3.org/2000/svg">
<rect x="0" y="0" width="383" height="404" fill="#f7f7f7" stroke="none" stroke-width="0"/>

<!-- Association PARENER -->
<g>
	<line x1="162" y1="175" x2="42" y2="44" stroke="#9970ab" stroke-width="1"/>
	<line x1="162" y1="44" x2="42" y2="44" stroke="#9970ab" stroke-width="1"/>
	<g>
		<path d="M61 18 a14 14 90 0 1 14 14 V44 h-66 V32 a14 14 90 0 1 14 -14" fill="#c2a5cf" stroke="#c2a5cf" stroke-width="0"/>
		<path d="M75 44 v12 a14 14 90 0 1 -14 14 H23 a14 14 90 0 1 -14 -14 V44 H66" fill="#e7d4e8" stroke="#e7d4e8" stroke-width="0"/>
		<rect x="9" y="18" width="66" height="52" fill="none" rx="14" stroke="#9970ab" stroke-width="1.5"/>
		<line x1="9" y1="44" x2="75" y2="44" stroke="#9970ab" stroke-width="1"/>
		<text x="17" y="36.6" fill="#000000" font-family="Trebuchet MS" font-size="14">parener</text>
	</g>
	<text x="99" y="144.98" fill="#1b7837" font-family="Verdana" font-size="12">0,1</text>
	<text x="104" y="61" fill="#1b7837" font-family="Verdana" font-size="12">1,1</text>
</g>

<!-- Association COMPOSER -->
<g>
	<line x1="162" y1="44" x2="313" y2="44" stroke="#9970ab" stroke-width="1"/>
	<line x1="313" y1="175" x2="313" y2="44" stroke="#9970ab" stroke-width="1"/>
	<g>
		<path d="M338 18 a14 14 90 0 1 14 14 V44 h-78 V32 a14 14 90 0 1 14 -14" fill="#c2a5cf" stroke="#c2a5cf" stroke-width="0"/>
		<path d="M352 44 v12 a14 14 90 0 1 -14 14 H288 a14 14 90 0 1 -14 -14 V44 H78" fill="#e7d4e8" stroke="#e7d4e8" stroke-width="0"/>
		<rect x="274" y="18" width="78" height="52" fill="none" rx="14" stroke="#9970ab" stroke-width="1.5"/>
		<line x1="274" y1="44" x2="352" y2="44" stroke="#9970ab" stroke-width="1"/>
		<text x="282" y="36.6" fill="#000000" font-family="Trebuchet MS" font-size="14">composer</text>
	</g>
	<text x="199" y="61" fill="#1b7837" font-family="Verdana" font-size="12">0,N</text>
	<text x="318" y="114" fill="#1b7837" font-family="Verdana" font-size="12">1,1</text>
</g>

<!-- Association ADHERE -->
<g>
	<line x1="162" y1="333" x2="42" y2="333" stroke="#9970ab" stroke-width="1"/>
	<line x1="162" y1="175" x2="42" y2="333" stroke="#9970ab" stroke-width="1"/>
	<g>
		<path d="M58 307 a14 14 90 0 1 14 14 V333 h-60 V321 a14 14 90 0 1 14 -14" fill="#c2a5cf" stroke="#c2a5cf" stroke-width="0"/>
		<path d="M72 333 v12 a14 14 90 0 1 -14 14 H26 a14 14 90 0 1 -14 -14 V333 H60" fill="#e7d4e8" stroke="#e7d4e8" stroke-width="0"/>
		<rect x="12" y="307" width="60" height="52" fill="none" rx="14" stroke="#9970ab" stroke-width="1.5"/>
		<line x1="12" y1="333" x2="72" y2="333" stroke="#9970ab" stroke-width="1"/>
		<text x="19" y="325.6" fill="#000000" font-family="Trebuchet MS" font-size="14">adhere</text>
	</g>
	<text x="77" y="350" fill="#1b7837" font-family="Verdana" font-size="12">1,N</text>
	<text x="98" y="221.43" fill="#1b7837" font-family="Verdana" font-size="12">1,N</text>
</g>

<!-- Association ADHERE_PARAINER -->
<g>
	<line x1="162" y1="333" x2="313" y2="333" stroke="#9970ab" stroke-width="1"/>
	<line x1="313" y1="175" x2="313" y2="333" stroke="#9970ab" stroke-width="1"/>
	<line x1="162" y1="175" x2="313" y2="333" stroke="#9970ab" stroke-width="1"/>
	<g>
		<path d="M360 307 a14 14 90 0 1 14 14 V333 h-122 V321 a14 14 90 0 1 14 -14" fill="#c2a5cf" stroke="#c2a5cf" stroke-width="0"/>
		<path d="M374 333 v12 a14 14 90 0 1 -14 14 H266 a14 14 90 0 1 -14 -14 V333 H122" fill="#e7d4e8" stroke="#e7d4e8" stroke-width="0"/>
		<rect x="252" y="307" width="122" height="52" fill="none" rx="14" stroke="#9970ab" stroke-width="1.5"/>
		<line x1="252" y1="333" x2="374" y2="333" stroke="#9970ab" stroke-width="1"/>
		<text x="260" y="325.6" fill="#000000" font-family="Trebuchet MS" font-size="14">adhere_parainer</text>
	</g>
	<text x="225" y="350" fill="#1b7837" font-family="Verdana" font-size="12">1,N</text>
	<text x="318" y="245" fill="#1b7837" font-family="Verdana" font-size="12">1,N</text>
	<text x="204" y="212.56" fill="#1b7837" font-family="Verdana" font-size="12">0,N</text>
</g>

<!-- Entity FAMILLE -->
<g>
	<g>
		<rect x="130" y="9" width="64" height="26" fill="#a6dba0" stroke="none" stroke-width="0" opacity="1"/>
		<rect x="130" y="35" width="64" height="44" fill="#d9f0d3" stroke="none" stroke-width="0" opacity="1"/>
		<rect x="130" y="9" width="64" height="70" fill="none" stroke="#5aae61" stroke-width="1.5" opacity="1"/>
		<line x1="130" y1="35" x2="194" y2="35" stroke="#5aae61" stroke-width="1"/>
	</g>
	<text x="136" y="27.6" fill="#000000" font-family="Trebuchet MS" font-size="14">FAMILLE</text>
	<text x="135" y="53.6" fill="#000000" font-family="Trebuchet MS" font-size="14">id</text>
	<line x1="135" y1="56" x2="148" y2="56" stroke="#000000" stroke-width="1"/>
</g>

<!-- Entity COMPTE -->
<g>
	<g>
		<rect x="125" y="104" width="74" height="26" fill="#a6dba0" stroke="none" stroke-width="0" opacity="1"/>
		<rect x="125" y="130" width="74" height="116" fill="#d9f0d3" stroke="none" stroke-width="0" opacity="1"/>
		<rect x="125" y="104" width="74" height="142" fill="none" stroke="#5aae61" stroke-width="1.5" opacity="1"/>
		<line x1="125" y1="130" x2="199" y2="130" stroke="#5aae61" stroke-width="1"/>
	</g>
	<text x="135" y="122.6" fill="#000000" font-family="Trebuchet MS" font-size="14">COMPTE</text>
	<text x="130" y="148.6" fill="#000000" font-family="Trebuchet MS" font-size="14">uuid</text>
	<line x1="130" y1="151" x2="159" y2="151" stroke="#000000" stroke-width="1"/>
	<text x="130" y="166.6" fill="#000000" font-family="Trebuchet MS" font-size="14">nom</text>
	<text x="130" y="184.6" fill="#000000" font-family="Trebuchet MS" font-size="14">prenom</text>
	<text x="130" y="202.6" fill="#000000" font-family="Trebuchet MS" font-size="14">mail</text>
	<text x="130" y="220.6" fill="#000000" font-family="Trebuchet MS" font-size="14">naissance</text>
	<text x="130" y="238.6" fill="#000000" font-family="Trebuchet MS" font-size="14">tel</text>
</g>

<!-- Entity MENBRE_FAMILLE -->
<g>
	<g>
		<rect x="252" y="122" width="122" height="26" fill="#a6dba0" stroke="none" stroke-width="0" opacity="1"/>
		<rect x="252" y="148" width="122" height="80" fill="#d9f0d3" stroke="none" stroke-width="0" opacity="1"/>
		<rect x="252" y="122" width="122" height="106" fill="none" stroke="#5aae61" stroke-width="1.5" opacity="1"/>
		<line x1="252" y1="148" x2="374" y2="148" stroke="#5aae61" stroke-width="1"/>
	</g>
	<text x="257" y="140.6" fill="#000000" font-family="Trebuchet MS" font-size="14">MENBRE_FAMILLE</text>
	<text x="257" y="166.6" fill="#000000" font-family="Trebuchet MS" font-size="14">uuid</text>
	<line x1="257" y1="169" x2="286" y2="169" stroke="#000000" stroke-width="1"/>
	<text x="257" y="184.6" fill="#000000" font-family="Trebuchet MS" font-size="14">nom</text>
	<text x="257" y="202.6" fill="#000000" font-family="Trebuchet MS" font-size="14">prenom</text>
	<text x="257" y="220.6" fill="#000000" font-family="Trebuchet MS" font-size="14">naissance</text>
</g>

<!-- Entity TYPE_ADHESION -->
<g>
	<g>
		<rect x="104" y="271" width="116" height="26" fill="#a6dba0" stroke="none" stroke-width="0" opacity="1"/>
		<rect x="104" y="297" width="116" height="98" fill="#d9f0d3" stroke="none" stroke-width="0" opacity="1"/>
		<rect x="104" y="271" width="116" height="124" fill="none" stroke="#5aae61" stroke-width="1.5" opacity="1"/>
		<line x1="104" y1="297" x2="220" y2="297" stroke="#5aae61" stroke-width="1"/>
	</g>
	<text x="110" y="289.6" fill="#000000" font-family="Trebuchet MS" font-size="14">TYPE_ADHESION</text>
	<text x="109" y="315.6" fill="#000000" font-family="Trebuchet MS" font-size="14">id</text>
	<line x1="109" y1="318" x2="122" y2="318" stroke="#000000" stroke-width="1"/>
	<text x="109" y="333.6" fill="#000000" font-family="Trebuchet MS" font-size="14">libelle</text>
	<text x="109" y="351.6" fill="#000000" font-family="Trebuchet MS" font-size="14">prix</text>
	<text x="109" y="369.6" fill="#000000" font-family="Trebuchet MS" font-size="14">description</text>
	<text x="109" y="387.6" fill="#000000" font-family="Trebuchet MS" font-size="14">duree</text>
</g>
</svg>