<?xml version="1.0" encoding="utf-8"?>
<!-- Generated by Mocodo 4.3.2 -->
<svg width="502" height="404" viewBox="0 0 502 404" xmlns="http://www.w3.org/2000/svg">
<rect x="0" y="0" width="502" height="404" fill="#f7f7f7" stroke="none" stroke-width="0"/>

<!-- Association CREER -->
<g>
	<line x1="282" y1="166" x2="159" y2="35" stroke="#9970ab" stroke-width="1"/>
	<line x1="282" y1="35" x2="159" y2="35" stroke="#9970ab" stroke-width="1"/>
	<g>
		<path d="M170 9 a14 14 90 0 1 14 14 V35 h-50 V23 a14 14 90 0 1 14 -14" fill="#c2a5cf" stroke="#c2a5cf" stroke-width="0"/>
		<path d="M184 35 v12 a14 14 90 0 1 -14 14 H148 a14 14 90 0 1 -14 -14 V35 H50" fill="#e7d4e8" stroke="#e7d4e8" stroke-width="0"/>
		<rect x="134" y="9" width="50" height="52" fill="none" rx="14" stroke="#9970ab" stroke-width="1.5"/>
		<line x1="134" y1="35" x2="184" y2="35" stroke="#9970ab" stroke-width="1"/>
		<text x="142" y="27.6" fill="#000000" font-family="Trebuchet MS" font-size="14">creer</text>
	</g>
	<text x="219" y="136.84" fill="#1b7837" font-family="Verdana" font-size="12">0,1</text>
	<text x="224" y="52" fill="#1b7837" font-family="Verdana" font-size="12">1,1</text>
</g>

<!-- Association COMPOSER -->
<g>
	<line x1="282" y1="35" x2="432" y2="35" stroke="#9970ab" stroke-width="1"/>
	<line x1="432" y1="166" x2="432" y2="35" stroke="#9970ab" stroke-width="1"/>
	<g>
		<path d="M457 9 a14 14 90 0 1 14 14 V35 h-78 V23 a14 14 90 0 1 14 -14" fill="#c2a5cf" stroke="#c2a5cf" stroke-width="0"/>
		<path d="M471 35 v12 a14 14 90 0 1 -14 14 H407 a14 14 90 0 1 -14 -14 V35 H78" fill="#e7d4e8" stroke="#e7d4e8" stroke-width="0"/>
		<rect x="393" y="9" width="78" height="52" fill="none" rx="14" stroke="#9970ab" stroke-width="1.5"/>
		<line x1="393" y1="35" x2="471" y2="35" stroke="#9970ab" stroke-width="1"/>
		<text x="401" y="27.6" fill="#000000" font-family="Trebuchet MS" font-size="14">composer</text>
	</g>
	<text x="319" y="52" fill="#1b7837" font-family="Verdana" font-size="12">0,N</text>
	<text x="437" y="96" fill="#1b7837" font-family="Verdana" font-size="12">1,1</text>
</g>

<!-- Association IDENTIFIER -->
<g>
	<line x1="49" y1="166" x2="159" y2="166" stroke="#9970ab" stroke-width="1"/>
	<line x1="282" y1="166" x2="159" y2="166" stroke="#9970ab" stroke-width="1"/>
	<g>
		<path d="M183 140 a14 14 90 0 1 14 14 V166 h-76 V154 a14 14 90 0 1 14 -14" fill="#c2a5cf" stroke="#c2a5cf" stroke-width="0"/>
		<path d="M197 166 v12 a14 14 90 0 1 -14 14 H135 a14 14 90 0 1 -14 -14 V166 H76" fill="#e7d4e8" stroke="#e7d4e8" stroke-width="0"/>
		<rect x="121" y="140" width="76" height="52" fill="none" rx="14" stroke="#9970ab" stroke-width="1.5"/>
		<line x1="121" y1="166" x2="197" y2="166" stroke="#9970ab" stroke-width="1"/>
		<text x="129" y="158.6" fill="#000000" font-family="Trebuchet MS" font-size="14">identifier</text>
	</g>
	<text x="94" y="183" fill="#1b7837" font-family="Verdana" font-size="12">1,1</text>
	<text x="219" y="183" fill="#1b7837" font-family="Verdana" font-size="12">1,1</text>
</g>

<!-- Association ADHERER -->
<g>
	<line x1="282" y1="166" x2="159" y2="333" stroke="#9970ab" stroke-width="1"/>
	<line x1="282" y1="333" x2="159" y2="333" stroke="#9970ab" stroke-width="1"/>
	<g>
		<path d="M178 307 a14 14 90 0 1 14 14 V333 h-66 V321 a14 14 90 0 1 14 -14" fill="#c2a5cf" stroke="#c2a5cf" stroke-width="0"/>
		<path d="M192 333 v12 a14 14 90 0 1 -14 14 H140 a14 14 90 0 1 -14 -14 V333 H66" fill="#e7d4e8" stroke="#e7d4e8" stroke-width="0"/>
		<rect x="126" y="307" width="66" height="52" fill="none" rx="14" stroke="#9970ab" stroke-width="1.5"/>
		<line x1="126" y1="333" x2="192" y2="333" stroke="#9970ab" stroke-width="1"/>
		<text x="134" y="325.6" fill="#000000" font-family="Trebuchet MS" font-size="14">adherer</text>
	</g>
	<text x="218" y="213.81" fill="#1b7837" font-family="Verdana" font-size="12">0,N</text>
	<text x="197" y="350" fill="#1b7837" font-family="Verdana" font-size="12">0,N</text>
</g>

<!-- Association ADDERR_PARRAINE -->
<g>
	<line x1="282" y1="333" x2="432" y2="333" stroke="#9970ab" stroke-width="1"/>
	<line x1="432" y1="166" x2="432" y2="333" stroke="#9970ab" stroke-width="1"/>
	<line x1="282" y1="166" x2="432" y2="333" stroke="#9970ab" stroke-width="1"/>
	<g>
		<path d="M478 307 a14 14 90 0 1 14 14 V333 h-120 V321 a14 14 90 0 1 14 -14" fill="#c2a5cf" stroke="#c2a5cf" stroke-width="0"/>
		<path d="M492 333 v12 a14 14 90 0 1 -14 14 H386 a14 14 90 0 1 -14 -14 V333 H120" fill="#e7d4e8" stroke="#e7d4e8" stroke-width="0"/>
		<rect x="372" y="307" width="120" height="52" fill="none" rx="14" stroke="#9970ab" stroke-width="1.5"/>
		<line x1="372" y1="333" x2="492" y2="333" stroke="#9970ab" stroke-width="1"/>
		<text x="380" y="325.6" fill="#000000" font-family="Trebuchet MS" font-size="14">adderr_parraine</text>
	</g>
	<text x="345" y="350" fill="#1b7837" font-family="Verdana" font-size="12">0,N</text>
	<text x="437" y="245" fill="#1b7837" font-family="Verdana" font-size="12">0,N</text>
	<text x="324" y="205.73" fill="#1b7837" font-family="Verdana" font-size="12">0,N</text>
</g>

<!-- Entity ADM -->
<g>
	<g>
		<rect x="14" y="9" width="70" height="26" fill="#a6dba0" stroke="none" stroke-width="0" opacity="1"/>
		<rect x="14" y="35" width="70" height="26" fill="#d9f0d3" stroke="none" stroke-width="0" opacity="1"/>
		<rect x="14" y="9" width="70" height="52" fill="none" stroke="#5aae61" stroke-width="1.5" opacity="1"/>
		<line x1="14" y1="35" x2="84" y2="35" stroke="#5aae61" stroke-width="1"/>
	</g>
	<text x="35" y="27.6" fill="#000000" font-family="Trebuchet MS" font-size="14">ADM</text>
	<text x="19" y="53.6" fill="#000000" font-family="Trebuchet MS" font-size="14">password</text>
	<line x1="19" y1="56" x2="79" y2="56" stroke="#000000" stroke-width="1"/>
</g>

<!-- Entity FAMILLE -->
<g>
	<g>
		<rect x="250" y="9" width="64" height="26" fill="#a6dba0" stroke="none" stroke-width="0" opacity="1"/>
		<rect x="250" y="35" width="64" height="26" fill="#d9f0d3" stroke="none" stroke-width="0" opacity="1"/>
		<rect x="250" y="9" width="64" height="52" fill="none" stroke="#5aae61" stroke-width="1.5" opacity="1"/>
		<line x1="250" y1="35" x2="314" y2="35" stroke="#5aae61" stroke-width="1"/>
	</g>
	<text x="256" y="27.6" fill="#000000" font-family="Trebuchet MS" font-size="14">FAMILLE</text>
	<text x="255" y="53.6" fill="#000000" font-family="Trebuchet MS" font-size="14">id</text>
	<line x1="255" y1="56" x2="268" y2="56" stroke="#000000" stroke-width="1"/>
</g>

<!-- Entity PASSWORD -->
<g>
	<g>
		<rect x="9" y="140" width="80" height="26" fill="#a6dba0" stroke="none" stroke-width="0" opacity="1"/>
		<rect x="9" y="166" width="80" height="26" fill="#d9f0d3" stroke="none" stroke-width="0" opacity="1"/>
		<rect x="9" y="140" width="80" height="52" fill="none" stroke="#5aae61" stroke-width="1.5" opacity="1"/>
		<line x1="9" y1="166" x2="89" y2="166" stroke="#5aae61" stroke-width="1"/>
	</g>
	<text x="14" y="158.6" fill="#000000" font-family="Trebuchet MS" font-size="14">PASSWORD</text>
	<text x="14" y="184.6" fill="#000000" font-family="Trebuchet MS" font-size="14">password</text>
	<line x1="14" y1="187" x2="74" y2="187" stroke="#000000" stroke-width="1"/>
</g>

<!-- Entity COMPTE -->
<g>
	<g>
		<rect x="245" y="86" width="74" height="26" fill="#a6dba0" stroke="none" stroke-width="0" opacity="1"/>
		<rect x="245" y="112" width="74" height="134" fill="#d9f0d3" stroke="none" stroke-width="0" opacity="1"/>
		<rect x="245" y="86" width="74" height="160" fill="none" stroke="#5aae61" stroke-width="1.5" opacity="1"/>
		<line x1="245" y1="112" x2="319" y2="112" stroke="#5aae61" stroke-width="1"/>
	</g>
	<text x="255" y="104.6" fill="#000000" font-family="Trebuchet MS" font-size="14">COMPTE</text>
	<text x="250" y="130.6" fill="#000000" font-family="Trebuchet MS" font-size="14">id</text>
	<line x1="250" y1="133" x2="263" y2="133" stroke="#000000" stroke-width="1"/>
	<text x="250" y="148.6" fill="#000000" font-family="Trebuchet MS" font-size="14">uuid</text>
	<text x="250" y="166.6" fill="#000000" font-family="Trebuchet MS" font-size="14">nom</text>
	<text x="250" y="184.6" fill="#000000" font-family="Trebuchet MS" font-size="14">prenom</text>
	<text x="250" y="202.6" fill="#000000" font-family="Trebuchet MS" font-size="14">mail</text>
	<text x="250" y="220.6" fill="#000000" font-family="Trebuchet MS" font-size="14">naissance</text>
	<text x="250" y="238.6" fill="#000000" font-family="Trebuchet MS" font-size="14">tel</text>
</g>

<!-- Entity MENBRE_FAMILLE -->
<g>
	<g>
		<rect x="371" y="104" width="122" height="26" fill="#a6dba0" stroke="none" stroke-width="0" opacity="1"/>
		<rect x="371" y="130" width="122" height="98" fill="#d9f0d3" stroke="none" stroke-width="0" opacity="1"/>
		<rect x="371" y="104" width="122" height="124" fill="none" stroke="#5aae61" stroke-width="1.5" opacity="1"/>
		<line x1="371" y1="130" x2="493" y2="130" stroke="#5aae61" stroke-width="1"/>
	</g>
	<text x="376" y="122.6" fill="#000000" font-family="Trebuchet MS" font-size="14">MENBRE_FAMILLE</text>
	<text x="376" y="148.6" fill="#000000" font-family="Trebuchet MS" font-size="14">id</text>
	<line x1="376" y1="151" x2="389" y2="151" stroke="#000000" stroke-width="1"/>
	<text x="376" y="166.6" fill="#000000" font-family="Trebuchet MS" font-size="14">uuid</text>
	<text x="376" y="184.6" fill="#000000" font-family="Trebuchet MS" font-size="14">nom</text>
	<text x="376" y="202.6" fill="#000000" font-family="Trebuchet MS" font-size="14">prenom</text>
	<text x="376" y="220.6" fill="#000000" font-family="Trebuchet MS" font-size="14">naissance</text>
</g>

<!-- Entity TYPE_ADHESION -->
<g>
	<g>
		<rect x="224" y="271" width="116" height="26" fill="#a6dba0" stroke="none" stroke-width="0" opacity="1"/>
		<rect x="224" y="297" width="116" height="98" fill="#d9f0d3" stroke="none" stroke-width="0" opacity="1"/>
		<rect x="224" y="271" width="116" height="124" fill="none" stroke="#5aae61" stroke-width="1.5" opacity="1"/>
		<line x1="224" y1="297" x2="340" y2="297" stroke="#5aae61" stroke-width="1"/>
	</g>
	<text x="230" y="289.6" fill="#000000" font-family="Trebuchet MS" font-size="14">TYPE_ADHESION</text>
	<text x="229" y="315.6" fill="#000000" font-family="Trebuchet MS" font-size="14">id</text>
	<line x1="229" y1="318" x2="242" y2="318" stroke="#000000" stroke-width="1"/>
	<text x="229" y="333.6" fill="#000000" font-family="Trebuchet MS" font-size="14">libelle</text>
	<text x="229" y="351.6" fill="#000000" font-family="Trebuchet MS" font-size="14">prix</text>
	<text x="229" y="369.6" fill="#000000" font-family="Trebuchet MS" font-size="14">description</text>
	<text x="229" y="387.6" fill="#000000" font-family="Trebuchet MS" font-size="14">duree</text>
</g>
</svg>