<?xml version="1.0" encoding="utf-8"?>
<!-- Generated by Mocodo 4.3.2 -->
<svg width="499" height="386" viewBox="0 0 499 386" xmlns="http://www.w3.org/2000/svg">
<rect x="0" y="0" width="499" height="386" fill="#f7f7f7" stroke="none" stroke-width="0"/>

<!-- Association CREER -->
<g>
	<line x1="279" y1="157" x2="159" y2="35" stroke="#9970ab" stroke-width="1"/>
	<line x1="279" y1="35" x2="159" y2="35" stroke="#9970ab" stroke-width="1"/>
	<g>
		<path d="M170 9 a14 14 90 0 1 14 14 V35 h-50 V23 a14 14 90 0 1 14 -14" fill="#c2a5cf" stroke="#c2a5cf" stroke-width="0"/>
		<path d="M184 35 v12 a14 14 90 0 1 -14 14 H148 a14 14 90 0 1 -14 -14 V35 H50" fill="#e7d4e8" stroke="#e7d4e8" stroke-width="0"/>
		<rect x="134" y="9" width="50" height="52" fill="none" rx="14" stroke="#9970ab" stroke-width="1.5"/>
		<line x1="134" y1="35" x2="184" y2="35" stroke="#9970ab" stroke-width="1"/>
		<text x="142" y="27.6" fill="#000000" font-family="Trebuchet MS" font-size="14">creer</text>
	</g>
	<text x="216" y="129.39" fill="#1b7837" font-family="Verdana" font-size="12">0,1</text>
	<text x="221" y="52" fill="#1b7837" font-family="Verdana" font-size="12">1,1</text>
</g>

<!-- Association COMPOSER -->
<g>
	<line x1="279" y1="35" x2="429" y2="35" stroke="#9970ab" stroke-width="1"/>
	<line x1="429" y1="157" x2="429" y2="35" stroke="#9970ab" stroke-width="1"/>
	<g>
		<path d="M454 9 a14 14 90 0 1 14 14 V35 h-78 V23 a14 14 90 0 1 14 -14" fill="#c2a5cf" stroke="#c2a5cf" stroke-width="0"/>
		<path d="M468 35 v12 a14 14 90 0 1 -14 14 H404 a14 14 90 0 1 -14 -14 V35 H78" fill="#e7d4e8" stroke="#e7d4e8" stroke-width="0"/>
		<rect x="390" y="9" width="78" height="52" fill="none" rx="14" stroke="#9970ab" stroke-width="1.5"/>
		<line x1="390" y1="35" x2="468" y2="35" stroke="#9970ab" stroke-width="1"/>
		<text x="398" y="27.6" fill="#000000" font-family="Trebuchet MS" font-size="14">composer</text>
	</g>
	<text x="316" y="52" fill="#1b7837" font-family="Verdana" font-size="12">0,N</text>
	<text x="434" y="96" fill="#1b7837" font-family="Verdana" font-size="12">1,1</text>
</g>

<!-- Association IDENTIFIER -->
<g>
	<line x1="49" y1="157" x2="159" y2="157" stroke="#9970ab" stroke-width="1"/>
	<line x1="279" y1="157" x2="159" y2="157" stroke="#9970ab" stroke-width="1"/>
	<g>
		<path d="M183 131 a14 14 90 0 1 14 14 V157 h-76 V145 a14 14 90 0 1 14 -14" fill="#c2a5cf" stroke="#c2a5cf" stroke-width="0"/>
		<path d="M197 157 v12 a14 14 90 0 1 -14 14 H135 a14 14 90 0 1 -14 -14 V157 H76" fill="#e7d4e8" stroke="#e7d4e8" stroke-width="0"/>
		<rect x="121" y="131" width="76" height="52" fill="none" rx="14" stroke="#9970ab" stroke-width="1.5"/>
		<line x1="121" y1="157" x2="197" y2="157" stroke="#9970ab" stroke-width="1"/>
		<text x="129" y="149.6" fill="#000000" font-family="Trebuchet MS" font-size="14">identifier</text>
	</g>
	<text x="94" y="174" fill="#1b7837" font-family="Verdana" font-size="12">1,1</text>
	<text x="216" y="174" fill="#1b7837" font-family="Verdana" font-size="12">1,1</text>
</g>

<!-- Association ADDERE -->
<g>
	<line x1="279" y1="157" x2="159" y2="315" stroke="#9970ab" stroke-width="1"/>
	<line x1="279" y1="315" x2="159" y2="315" stroke="#9970ab" stroke-width="1"/>
	<g>
		<path d="M175 289 a14 14 90 0 1 14 14 V315 h-60 V303 a14 14 90 0 1 14 -14" fill="#c2a5cf" stroke="#c2a5cf" stroke-width="0"/>
		<path d="M189 315 v12 a14 14 90 0 1 -14 14 H143 a14 14 90 0 1 -14 -14 V315 H60" fill="#e7d4e8" stroke="#e7d4e8" stroke-width="0"/>
		<rect x="129" y="289" width="60" height="52" fill="none" rx="14" stroke="#9970ab" stroke-width="1.5"/>
		<line x1="129" y1="315" x2="189" y2="315" stroke="#9970ab" stroke-width="1"/>
		<text x="136" y="307.6" fill="#000000" font-family="Trebuchet MS" font-size="14">addere</text>
	</g>
	<text x="215" y="203.43" fill="#1b7837" font-family="Verdana" font-size="12">0,N</text>
	<text x="194" y="332" fill="#1b7837" font-family="Verdana" font-size="12">0,N</text>
</g>

<!-- Association ADDERR_PARRAINE -->
<g>
	<line x1="279" y1="315" x2="429" y2="315" stroke="#9970ab" stroke-width="1"/>
	<line x1="429" y1="157" x2="429" y2="315" stroke="#9970ab" stroke-width="1"/>
	<line x1="279" y1="157" x2="429" y2="315" stroke="#9970ab" stroke-width="1"/>
	<g>
		<path d="M475 289 a14 14 90 0 1 14 14 V315 h-120 V303 a14 14 90 0 1 14 -14" fill="#c2a5cf" stroke="#c2a5cf" stroke-width="0"/>
		<path d="M489 315 v12 a14 14 90 0 1 -14 14 H383 a14 14 90 0 1 -14 -14 V315 H120" fill="#e7d4e8" stroke="#e7d4e8" stroke-width="0"/>
		<rect x="369" y="289" width="120" height="52" fill="none" rx="14" stroke="#9970ab" stroke-width="1.5"/>
		<line x1="369" y1="315" x2="489" y2="315" stroke="#9970ab" stroke-width="1"/>
		<text x="377" y="307.6" fill="#000000" font-family="Trebuchet MS" font-size="14">adderr_parraine</text>
	</g>
	<text x="342" y="332" fill="#1b7837" font-family="Verdana" font-size="12">0,N</text>
	<text x="434" y="227" fill="#1b7837" font-family="Verdana" font-size="12">0,N</text>
	<text x="321" y="194.78" fill="#1b7837" font-family="Verdana" font-size="12">0,N</text>
</g>

<!-- Entity ADM -->
<g>
	<g>
		<rect x="14" y="9" width="70" height="26" fill="#a6dba0" stroke="none" stroke-width="0" opacity="1"/>
		<rect x="14" y="35" width="70" height="26" fill="#d9f0d3" stroke="none" stroke-width="0" opacity="1"/>
		<rect x="14" y="9" width="70" height="52" fill="none" stroke="#5aae61" stroke-width="1.5" opacity="1"/>
		<line x1="14" y1="35" x2="84" y2="35" stroke="#5aae61" stroke-width="1"/>
	</g>
	<text x="35" y="27.6" fill="#000000" font-family="Trebuchet MS" font-size="14">ADM</text>
	<text x="19" y="53.6" fill="#000000" font-family="Trebuchet MS" font-size="14">password</text>
	<line x1="19" y1="56" x2="79" y2="56" stroke="#000000" stroke-width="1"/>
</g>

<!-- Entity FAMILLE -->
<g>
	<g>
		<rect x="247" y="9" width="64" height="26" fill="#a6dba0" stroke="none" stroke-width="0" opacity="1"/>
		<rect x="247" y="35" width="64" height="26" fill="#d9f0d3" stroke="none" stroke-width="0" opacity="1"/>
		<rect x="247" y="9" width="64" height="52" fill="none" stroke="#5aae61" stroke-width="1.5" opacity="1"/>
		<line x1="247" y1="35" x2="311" y2="35" stroke="#5aae61" stroke-width="1"/>
	</g>
	<text x="253" y="27.6" fill="#000000" font-family="Trebuchet MS" font-size="14">FAMILLE</text>
	<text x="252" y="53.6" fill="#000000" font-family="Trebuchet MS" font-size="14">id</text>
	<line x1="252" y1="56" x2="265" y2="56" stroke="#000000" stroke-width="1"/>
</g>

<!-- Entity PASSWORD -->
<g>
	<g>
		<rect x="9" y="131" width="80" height="26" fill="#a6dba0" stroke="none" stroke-width="0" opacity="1"/>
		<rect x="9" y="157" width="80" height="26" fill="#d9f0d3" stroke="none" stroke-width="0" opacity="1"/>
		<rect x="9" y="131" width="80" height="52" fill="none" stroke="#5aae61" stroke-width="1.5" opacity="1"/>
		<line x1="9" y1="157" x2="89" y2="157" stroke="#5aae61" stroke-width="1"/>
	</g>
	<text x="14" y="149.6" fill="#000000" font-family="Trebuchet MS" font-size="14">PASSWORD</text>
	<text x="14" y="175.6" fill="#000000" font-family="Trebuchet MS" font-size="14">password</text>
	<line x1="14" y1="178" x2="74" y2="178" stroke="#000000" stroke-width="1"/>
</g>

<!-- Entity COMPTE -->
<g>
	<g>
		<rect x="242" y="86" width="74" height="26" fill="#a6dba0" stroke="none" stroke-width="0" opacity="1"/>
		<rect x="242" y="112" width="74" height="116" fill="#d9f0d3" stroke="none" stroke-width="0" opacity="1"/>
		<rect x="242" y="86" width="74" height="142" fill="none" stroke="#5aae61" stroke-width="1.5" opacity="1"/>
		<line x1="242" y1="112" x2="316" y2="112" stroke="#5aae61" stroke-width="1"/>
	</g>
	<text x="252" y="104.6" fill="#000000" font-family="Trebuchet MS" font-size="14">COMPTE</text>
	<text x="247" y="130.6" fill="#000000" font-family="Trebuchet MS" font-size="14">uuid</text>
	<line x1="247" y1="133" x2="276" y2="133" stroke="#000000" stroke-width="1"/>
	<text x="247" y="148.6" fill="#000000" font-family="Trebuchet MS" font-size="14">nom</text>
	<text x="247" y="166.6" fill="#000000" font-family="Trebuchet MS" font-size="14">prenom</text>
	<text x="247" y="184.6" fill="#000000" font-family="Trebuchet MS" font-size="14">mail</text>
	<text x="247" y="202.6" fill="#000000" font-family="Trebuchet MS" font-size="14">naissance</text>
	<text x="247" y="220.6" fill="#000000" font-family="Trebuchet MS" font-size="14">tel</text>
</g>

<!-- Entity MENBRE_FAMILLE -->
<g>
	<g>
		<rect x="368" y="104" width="122" height="26" fill="#a6dba0" stroke="none" stroke-width="0" opacity="1"/>
		<rect x="368" y="130" width="122" height="80" fill="#d9f0d3" stroke="none" stroke-width="0" opacity="1"/>
		<rect x="368" y="104" width="122" height="106" fill="none" stroke="#5aae61" stroke-width="1.5" opacity="1"/>
		<line x1="368" y1="130" x2="490" y2="130" stroke="#5aae61" stroke-width="1"/>
	</g>
	<text x="373" y="122.6" fill="#000000" font-family="Trebuchet MS" font-size="14">MENBRE_FAMILLE</text>
	<text x="373" y="148.6" fill="#000000" font-family="Trebuchet MS" font-size="14">uuid</text>
	<line x1="373" y1="151" x2="402" y2="151" stroke="#000000" stroke-width="1"/>
	<text x="373" y="166.6" fill="#000000" font-family="Trebuchet MS" font-size="14">nom</text>
	<text x="373" y="184.6" fill="#000000" font-family="Trebuchet MS" font-size="14">prenom</text>
	<text x="373" y="202.6" fill="#000000" font-family="Trebuchet MS" font-size="14">naissance</text>
</g>

<!-- Entity TYPE_ADHESION -->
<g>
	<g>
		<rect x="221" y="253" width="116" height="26" fill="#a6dba0" stroke="none" stroke-width="0" opacity="1"/>
		<rect x="221" y="279" width="116" height="98" fill="#d9f0d3" stroke="none" stroke-width="0" opacity="1"/>
		<rect x="221" y="253" width="116" height="124" fill="none" stroke="#5aae61" stroke-width="1.5" opacity="1"/>
		<line x1="221" y1="279" x2="337" y2="279" stroke="#5aae61" stroke-width="1"/>
	</g>
	<text x="227" y="271.6" fill="#000000" font-family="Trebuchet MS" font-size="14">TYPE_ADHESION</text>
	<text x="226" y="297.6" fill="#000000" font-family="Trebuchet MS" font-size="14">id</text>
	<line x1="226" y1="300" x2="239" y2="300" stroke="#000000" stroke-width="1"/>
	<text x="226" y="315.6" fill="#000000" font-family="Trebuchet MS" font-size="14">libelle</text>
	<text x="226" y="333.6" fill="#000000" font-family="Trebuchet MS" font-size="14">prix</text>
	<text x="226" y="351.6" fill="#000000" font-family="Trebuchet MS" font-size="14">description</text>
	<text x="226" y="369.6" fill="#000000" font-family="Trebuchet MS" font-size="14">duree</text>
</g>
</svg>