<?xml version="1.0" encoding="utf-8"?>
<!-- Generated by Mocodo 4.3.2 -->
<svg width="265" height="517" viewBox="0 0 265 517" xmlns="http://www.w3.org/2000/svg">
<rect x="0" y="0" width="265" height="517" fill="#f7f7f7" stroke="none" stroke-width="0"/>

<!-- Association ADHERE_B -->
<g>
	<line x1="67" y1="71" x2="195" y2="71" stroke="#9970ab" stroke-width="1"/>
	<line x1="195" y1="211" x2="195" y2="71" stroke="#9970ab" stroke-width="1"/>
	<g>
		<path d="M219 45 a14 14 90 0 1 14 14 V71 h-76 V59 a14 14 90 0 1 14 -14" fill="#c2a5cf" stroke="#c2a5cf" stroke-width="0"/>
		<path d="M233 71 v12 a14 14 90 0 1 -14 14 H171 a14 14 90 0 1 -14 -14 V71 H76" fill="#e7d4e8" stroke="#e7d4e8" stroke-width="0"/>
		<rect x="157" y="45" width="76" height="52" fill="none" rx="14" stroke="#9970ab" stroke-width="1.5"/>
		<line x1="157" y1="71" x2="233" y2="71" stroke="#9970ab" stroke-width="1"/>
		<text x="165" y="63.6" fill="#000000" font-family="Trebuchet MS" font-size="14">adhere_b</text>
	</g>
	<text x="130" y="88" fill="#1b7837" font-family="Verdana" font-size="12">0,N</text>
	<text x="200" y="150" fill="#1b7837" font-family="Verdana" font-size="12">0,1</text>
</g>

<!-- Association ADHERE -->
<g>
	<line x1="67" y1="71" x2="67" y2="211" stroke="#9970ab" stroke-width="1"/>
	<line x1="67" y1="315" x2="67" y2="211" stroke="#9970ab" stroke-width="1"/>
	<g>
		<path d="M83 185 a14 14 90 0 1 14 14 V211 h-60 V199 a14 14 90 0 1 14 -14" fill="#c2a5cf" stroke="#c2a5cf" stroke-width="0"/>
		<path d="M97 211 v12 a14 14 90 0 1 -14 14 H51 a14 14 90 0 1 -14 -14 V211 H60" fill="#e7d4e8" stroke="#e7d4e8" stroke-width="0"/>
		<rect x="37" y="185" width="60" height="52" fill="none" rx="14" stroke="#9970ab" stroke-width="1.5"/>
		<line x1="37" y1="211" x2="97" y2="211" stroke="#9970ab" stroke-width="1"/>
		<text x="44" y="203.6" fill="#000000" font-family="Trebuchet MS" font-size="14">adhere</text>
	</g>
	<text x="72" y="150" fill="#1b7837" font-family="Verdana" font-size="12">0,N</text>
	<text x="72" y="272" fill="#1b7837" font-family="Verdana" font-size="12">0,N</text>
</g>

<!-- Association COMPOSER -->
<g>
	<line x1="67" y1="315" x2="195" y2="315" stroke="#9970ab" stroke-width="1"/>
	<line x1="195" y1="211" x2="195" y2="315" stroke="#9970ab" stroke-width="1"/>
	<g>
		<path d="M220 289 a14 14 90 0 1 14 14 V315 h-78 V303 a14 14 90 0 1 14 -14" fill="#c2a5cf" stroke="#c2a5cf" stroke-width="0"/>
		<path d="M234 315 v12 a14 14 90 0 1 -14 14 H170 a14 14 90 0 1 -14 -14 V315 H78" fill="#e7d4e8" stroke="#e7d4e8" stroke-width="0"/>
		<rect x="156" y="289" width="78" height="52" fill="none" rx="14" stroke="#9970ab" stroke-width="1.5"/>
		<line x1="156" y1="315" x2="234" y2="315" stroke="#9970ab" stroke-width="1"/>
		<text x="164" y="307.6" fill="#000000" font-family="Trebuchet MS" font-size="14">composer</text>
	</g>
	<text x="104" y="332" fill="#1b7837" font-family="Verdana" font-size="12">0,N</text>
	<text x="200" y="281" fill="#1b7837" font-family="Verdana" font-size="12">1,1</text>
</g>

<!-- Association PARENER -->
<g>
	<line x1="195" y1="437" x2="67" y2="437" stroke="#9970ab" stroke-width="1"/>
	<line x1="67" y1="315" x2="67" y2="437" stroke="#9970ab" stroke-width="1"/>
	<g>
		<path d="M86 411 a14 14 90 0 1 14 14 V437 h-66 V425 a14 14 90 0 1 14 -14" fill="#c2a5cf" stroke="#c2a5cf" stroke-width="0"/>
		<path d="M100 437 v12 a14 14 90 0 1 -14 14 H48 a14 14 90 0 1 -14 -14 V437 H66" fill="#e7d4e8" stroke="#e7d4e8" stroke-width="0"/>
		<rect x="34" y="411" width="66" height="52" fill="none" rx="14" stroke="#9970ab" stroke-width="1.5"/>
		<line x1="34" y1="437" x2="100" y2="437" stroke="#9970ab" stroke-width="1"/>
		<text x="42" y="429.6" fill="#000000" font-family="Trebuchet MS" font-size="14">parener</text>
	</g>
	<text x="132" y="454" fill="#1b7837" font-family="Verdana" font-size="12">1,1</text>
	<text x="72" y="367" fill="#1b7837" font-family="Verdana" font-size="12">1,1</text>
</g>

<!-- Entity TYPE_ADHESION -->
<g>
	<g>
		<rect x="9" y="9" width="116" height="26" fill="#a6dba0" stroke="none" stroke-width="0" opacity="1"/>
		<rect x="9" y="35" width="116" height="98" fill="#d9f0d3" stroke="none" stroke-width="0" opacity="1"/>
		<rect x="9" y="9" width="116" height="124" fill="none" stroke="#5aae61" stroke-width="1.5" opacity="1"/>
		<line x1="9" y1="35" x2="125" y2="35" stroke="#5aae61" stroke-width="1"/>
	</g>
	<text x="15" y="27.6" fill="#000000" font-family="Trebuchet MS" font-size="14">TYPE_ADHESION</text>
	<text x="14" y="53.6" fill="#000000" font-family="Trebuchet MS" font-size="14">id</text>
	<line x1="14" y1="56" x2="27" y2="56" stroke="#000000" stroke-width="1"/>
	<text x="14" y="71.6" fill="#000000" font-family="Trebuchet MS" font-size="14">libelle</text>
	<text x="14" y="89.6" fill="#000000" font-family="Trebuchet MS" font-size="14">prix</text>
	<text x="14" y="107.6" fill="#000000" font-family="Trebuchet MS" font-size="14">description</text>
	<text x="14" y="125.6" fill="#000000" font-family="Trebuchet MS" font-size="14">duree</text>
</g>

<!-- Entity MENBRE_FAMILLE -->
<g>
	<g>
		<rect x="134" y="158" width="122" height="26" fill="#a6dba0" stroke="none" stroke-width="0" opacity="1"/>
		<rect x="134" y="184" width="122" height="80" fill="#d9f0d3" stroke="none" stroke-width="0" opacity="1"/>
		<rect x="134" y="158" width="122" height="106" fill="none" stroke="#5aae61" stroke-width="1.5" opacity="1"/>
		<line x1="134" y1="184" x2="256" y2="184" stroke="#5aae61" stroke-width="1"/>
	</g>
	<text x="139" y="176.6" fill="#000000" font-family="Trebuchet MS" font-size="14">MENBRE_FAMILLE</text>
	<text x="139" y="202.6" fill="#000000" font-family="Trebuchet MS" font-size="14">uuid</text>
	<line x1="139" y1="205" x2="168" y2="205" stroke="#000000" stroke-width="1"/>
	<text x="139" y="220.6" fill="#000000" font-family="Trebuchet MS" font-size="14">nom</text>
	<text x="139" y="238.6" fill="#000000" font-family="Trebuchet MS" font-size="14">prenom</text>
	<text x="139" y="256.6" fill="#000000" font-family="Trebuchet MS" font-size="14">naissance</text>
</g>

<!-- Entity FAMILLE -->
<g>
	<g>
		<rect x="35" y="280" width="64" height="26" fill="#a6dba0" stroke="none" stroke-width="0" opacity="1"/>
		<rect x="35" y="306" width="64" height="44" fill="#d9f0d3" stroke="none" stroke-width="0" opacity="1"/>
		<rect x="35" y="280" width="64" height="70" fill="none" stroke="#5aae61" stroke-width="1.5" opacity="1"/>
		<line x1="35" y1="306" x2="99" y2="306" stroke="#5aae61" stroke-width="1"/>
	</g>
	<text x="41" y="298.6" fill="#000000" font-family="Trebuchet MS" font-size="14">FAMILLE</text>
	<text x="40" y="324.6" fill="#000000" font-family="Trebuchet MS" font-size="14">id</text>
	<line x1="40" y1="327" x2="53" y2="327" stroke="#000000" stroke-width="1"/>
	<text x="40" y="342.6" fill="#000000" font-family="Trebuchet MS" font-size="14">pere</text>
</g>

<!-- Entity COMPTE -->
<g>
	<g>
		<rect x="158" y="366" width="74" height="26" fill="#a6dba0" stroke="none" stroke-width="0" opacity="1"/>
		<rect x="158" y="392" width="74" height="116" fill="#d9f0d3" stroke="none" stroke-width="0" opacity="1"/>
		<rect x="158" y="366" width="74" height="142" fill="none" stroke="#5aae61" stroke-width="1.5" opacity="1"/>
		<line x1="158" y1="392" x2="232" y2="392" stroke="#5aae61" stroke-width="1"/>
	</g>
	<text x="168" y="384.6" fill="#000000" font-family="Trebuchet MS" font-size="14">COMPTE</text>
	<text x="163" y="410.6" fill="#000000" font-family="Trebuchet MS" font-size="14">uuid</text>
	<line x1="163" y1="413" x2="192" y2="413" stroke="#000000" stroke-width="1"/>
	<text x="163" y="428.6" fill="#000000" font-family="Trebuchet MS" font-size="14">nom</text>
	<text x="163" y="446.6" fill="#000000" font-family="Trebuchet MS" font-size="14">prenom</text>
	<text x="163" y="464.6" fill="#000000" font-family="Trebuchet MS" font-size="14">mail</text>
	<text x="163" y="482.6" fill="#000000" font-family="Trebuchet MS" font-size="14">naissance</text>
	<text x="163" y="500.6" fill="#000000" font-family="Trebuchet MS" font-size="14">tel</text>
</g>
</svg>