<?xml version="1.0" encoding="utf-8"?>
<!-- Generated by Mocodo 4.3.2 -->
<svg width="344" height="237" viewBox="0 0 344 237" xmlns="http://www.w3.org/2000/svg">
<rect x="0" y="0" width="344" height="237" fill="#f7f7f7" stroke="none" stroke-width="0"/>

<!-- Association ADHERE -->
<g>
	<line x1="67" y1="80" x2="187" y2="80" stroke="#9970ab" stroke-width="1"/>
	<line x1="297" y1="80" x2="187" y2="80" stroke="#9970ab" stroke-width="1"/>
	<g>
		<path d="M203 54 a14 14 90 0 1 14 14 V80 h-60 V68 a14 14 90 0 1 14 -14" fill="#c2a5cf" stroke="#c2a5cf" stroke-width="0"/>
		<path d="M217 80 v12 a14 14 90 0 1 -14 14 H171 a14 14 90 0 1 -14 -14 V80 H60" fill="#e7d4e8" stroke="#e7d4e8" stroke-width="0"/>
		<rect x="157" y="54" width="60" height="52" fill="none" rx="14" stroke="#9970ab" stroke-width="1.5"/>
		<line x1="157" y1="80" x2="217" y2="80" stroke="#9970ab" stroke-width="1"/>
		<text x="164" y="72.6" fill="#000000" font-family="Trebuchet MS" font-size="14">adhere</text>
		<text x="164" y="98.6" fill="#000000" font-family="Trebuchet MS" font-size="14">payed</text>
	</g>
	<text x="130" y="97" fill="#1b7837" font-family="Verdana" font-size="12">0,N</text>
	<text x="233" y="97" fill="#1b7837" font-family="Verdana" font-size="12">0,N</text>
</g>

<!-- Association IDENTIFIER -->
<g>
	<line x1="297" y1="80" x2="297" y2="202" stroke="#9970ab" stroke-width="1"/>
	<line x1="187" y1="202" x2="297" y2="202" stroke="#9970ab" stroke-width="1"/>
	<g>
		<path d="M321 176 a14 14 90 0 1 14 14 V202 h-76 V190 a14 14 90 0 1 14 -14" fill="#c2a5cf" stroke="#c2a5cf" stroke-width="0"/>
		<path d="M335 202 v12 a14 14 90 0 1 -14 14 H273 a14 14 90 0 1 -14 -14 V202 H76" fill="#e7d4e8" stroke="#e7d4e8" stroke-width="0"/>
		<rect x="259" y="176" width="76" height="52" fill="none" rx="14" stroke="#9970ab" stroke-width="1.5"/>
		<line x1="259" y1="202" x2="335" y2="202" stroke="#9970ab" stroke-width="1"/>
		<text x="267" y="194.6" fill="#000000" font-family="Trebuchet MS" font-size="14">identifier</text>
	</g>
	<text x="302" y="168" fill="#1b7837" font-family="Verdana" font-size="12">1,1</text>
	<text x="232" y="219" fill="#1b7837" font-family="Verdana" font-size="12">1,1</text>
</g>

<!-- Entity TYPE_ADHESION -->
<g>
	<g>
		<rect x="9" y="18" width="116" height="26" fill="#a6dba0" stroke="none" stroke-width="0" opacity="1"/>
		<rect x="9" y="44" width="116" height="98" fill="#d9f0d3" stroke="none" stroke-width="0" opacity="1"/>
		<rect x="9" y="18" width="116" height="124" fill="none" stroke="#5aae61" stroke-width="1.5" opacity="1"/>
		<line x1="9" y1="44" x2="125" y2="44" stroke="#5aae61" stroke-width="1"/>
	</g>
	<text x="15" y="36.6" fill="#000000" font-family="Trebuchet MS" font-size="14">TYPE_ADHESION</text>
	<text x="14" y="62.6" fill="#000000" font-family="Trebuchet MS" font-size="14">id</text>
	<line x1="14" y1="65" x2="27" y2="65" stroke="#000000" stroke-width="1"/>
	<text x="14" y="80.6" fill="#000000" font-family="Trebuchet MS" font-size="14">libelle</text>
	<text x="14" y="98.6" fill="#000000" font-family="Trebuchet MS" font-size="14">prix</text>
	<text x="14" y="116.6" fill="#000000" font-family="Trebuchet MS" font-size="14">description</text>
	<text x="14" y="134.6" fill="#000000" font-family="Trebuchet MS" font-size="14">duree</text>
</g>

<!-- Entity USER -->
<g>
	<g>
		<rect x="260" y="9" width="74" height="26" fill="#a6dba0" stroke="none" stroke-width="0" opacity="1"/>
		<rect x="260" y="35" width="74" height="116" fill="#d9f0d3" stroke="none" stroke-width="0" opacity="1"/>
		<rect x="260" y="9" width="74" height="142" fill="none" stroke="#5aae61" stroke-width="1.5" opacity="1"/>
		<line x1="260" y1="35" x2="334" y2="35" stroke="#5aae61" stroke-width="1"/>
	</g>
	<text x="281" y="27.6" fill="#000000" font-family="Trebuchet MS" font-size="14">USER</text>
	<text x="265" y="53.6" fill="#000000" font-family="Trebuchet MS" font-size="14">uuid</text>
	<line x1="265" y1="56" x2="294" y2="56" stroke="#000000" stroke-width="1"/>
	<text x="265" y="71.6" fill="#000000" font-family="Trebuchet MS" font-size="14">nom</text>
	<text x="265" y="89.6" fill="#000000" font-family="Trebuchet MS" font-size="14">prenom</text>
	<text x="265" y="107.6" fill="#000000" font-family="Trebuchet MS" font-size="14">mail</text>
	<text x="265" y="125.6" fill="#000000" font-family="Trebuchet MS" font-size="14">naissance</text>
	<text x="265" y="143.6" fill="#000000" font-family="Trebuchet MS" font-size="14">tel</text>
</g>

<!-- Entity ADMPASS -->
<g>
	<g>
		<rect x="32" y="176" width="70" height="26" fill="#a6dba0" stroke="none" stroke-width="0" opacity="1"/>
		<rect x="32" y="202" width="70" height="26" fill="#d9f0d3" stroke="none" stroke-width="0" opacity="1"/>
		<rect x="32" y="176" width="70" height="52" fill="none" stroke="#5aae61" stroke-width="1.5" opacity="1"/>
		<line x1="32" y1="202" x2="102" y2="202" stroke="#5aae61" stroke-width="1"/>
	</g>
	<text x="38" y="194.6" fill="#000000" font-family="Trebuchet MS" font-size="14">ADMPASS</text>
	<text x="37" y="220.6" fill="#000000" font-family="Trebuchet MS" font-size="14">password</text>
	<line x1="37" y1="223" x2="97" y2="223" stroke="#000000" stroke-width="1"/>
</g>

<!-- Entity PASSWORD -->
<g>
	<g>
		<rect x="147" y="176" width="80" height="26" fill="#a6dba0" stroke="none" stroke-width="0" opacity="1"/>
		<rect x="147" y="202" width="80" height="26" fill="#d9f0d3" stroke="none" stroke-width="0" opacity="1"/>
		<rect x="147" y="176" width="80" height="52" fill="none" stroke="#5aae61" stroke-width="1.5" opacity="1"/>
		<line x1="147" y1="202" x2="227" y2="202" stroke="#5aae61" stroke-width="1"/>
	</g>
	<text x="152" y="194.6" fill="#000000" font-family="Trebuchet MS" font-size="14">PASSWORD</text>
	<text x="152" y="220.6" fill="#000000" font-family="Trebuchet MS" font-size="14">password</text>
	<line x1="152" y1="223" x2="212" y2="223" stroke="#000000" stroke-width="1"/>
</g>
</svg>