<?xml version="1.0" encoding="utf-8"?>
<!-- Generated by Mocodo 4.3.2 -->
<svg width="267" height="558" viewBox="0 0 267 558" xmlns="http://www.w3.org/2000/svg">
<rect x="0" y="0" width="267" height="558" fill="#f7f7f7" stroke="none" stroke-width="0"/>

<!-- Association ADHERE -->
<g>
	<line x1="67" y1="71" x2="67" y2="184" stroke="#9970ab" stroke-width="1"/>
	<line x1="67" y1="270" x2="67" y2="184" stroke="#9970ab" stroke-width="1"/>
	<g>
		<path d="M83 158 a14 14 90 0 1 14 14 V184 h-60 V172 a14 14 90 0 1 14 -14" fill="#c2a5cf" stroke="#c2a5cf" stroke-width="0"/>
		<path d="M97 184 v12 a14 14 90 0 1 -14 14 H51 a14 14 90 0 1 -14 -14 V184 H60" fill="#e7d4e8" stroke="#e7d4e8" stroke-width="0"/>
		<rect x="37" y="158" width="60" height="52" fill="none" rx="14" stroke="#9970ab" stroke-width="1.5"/>
		<line x1="37" y1="184" x2="97" y2="184" stroke="#9970ab" stroke-width="1"/>
		<text x="44" y="176.6" fill="#000000" font-family="Trebuchet MS" font-size="14">adhere</text>
	</g>
	<text x="72" y="150" fill="#1b7837" font-family="Verdana" font-size="12">0,N</text>
	<text x="72" y="227" fill="#1b7837" font-family="Verdana" font-size="12">0,N</text>
</g>

<!-- Association PARENER -->
<g>
	<line x1="67" y1="478" x2="67" y2="356" stroke="#9970ab" stroke-width="1"/>
	<line x1="67" y1="270" x2="67" y2="356" stroke="#9970ab" stroke-width="1"/>
	<g>
		<path d="M86 330 a14 14 90 0 1 14 14 V356 h-66 V344 a14 14 90 0 1 14 -14" fill="#c2a5cf" stroke="#c2a5cf" stroke-width="0"/>
		<path d="M100 356 v12 a14 14 90 0 1 -14 14 H48 a14 14 90 0 1 -14 -14 V356 H66" fill="#e7d4e8" stroke="#e7d4e8" stroke-width="0"/>
		<rect x="34" y="330" width="66" height="52" fill="none" rx="14" stroke="#9970ab" stroke-width="1.5"/>
		<line x1="34" y1="356" x2="100" y2="356" stroke="#9970ab" stroke-width="1"/>
		<text x="42" y="348.6" fill="#000000" font-family="Trebuchet MS" font-size="14">parener</text>
	</g>
	<text x="72" y="399" fill="#1b7837" font-family="Verdana" font-size="12">1,1</text>
	<text x="41" y="322" fill="#1b7837" font-family="Verdana" font-size="12">1,1</text>
</g>

<!-- Association COMPOSER -->
<g>
	<line x1="67" y1="270" x2="197" y2="356" stroke="#9970ab" stroke-width="1"/>
	<line x1="197" y1="478" x2="197" y2="356" stroke="#9970ab" stroke-width="1"/>
	<g>
		<path d="M222 330 a14 14 90 0 1 14 14 V356 h-78 V344 a14 14 90 0 1 14 -14" fill="#c2a5cf" stroke="#c2a5cf" stroke-width="0"/>
		<path d="M236 356 v12 a14 14 90 0 1 -14 14 H172 a14 14 90 0 1 -14 -14 V356 H78" fill="#e7d4e8" stroke="#e7d4e8" stroke-width="0"/>
		<rect x="158" y="330" width="78" height="52" fill="none" rx="14" stroke="#9970ab" stroke-width="1.5"/>
		<line x1="158" y1="356" x2="236" y2="356" stroke="#9970ab" stroke-width="1"/>
		<text x="166" y="348.6" fill="#000000" font-family="Trebuchet MS" font-size="14">composer</text>
	</g>
	<text x="104" y="288.24" fill="#1b7837" font-family="Verdana" font-size="12">0,N</text>
	<text x="202" y="417" fill="#1b7837" font-family="Verdana" font-size="12">1,1</text>
</g>

<!-- Entity TYPE_ADHESION -->
<g>
	<g>
		<rect x="9" y="9" width="116" height="26" fill="#a6dba0" stroke="none" stroke-width="0" opacity="1"/>
		<rect x="9" y="35" width="116" height="98" fill="#d9f0d3" stroke="none" stroke-width="0" opacity="1"/>
		<rect x="9" y="9" width="116" height="124" fill="none" stroke="#5aae61" stroke-width="1.5" opacity="1"/>
		<line x1="9" y1="35" x2="125" y2="35" stroke="#5aae61" stroke-width="1"/>
	</g>
	<text x="15" y="27.6" fill="#000000" font-family="Trebuchet MS" font-size="14">TYPE_ADHESION</text>
	<text x="14" y="53.6" fill="#000000" font-family="Trebuchet MS" font-size="14">id</text>
	<line x1="14" y1="56" x2="27" y2="56" stroke="#000000" stroke-width="1"/>
	<text x="14" y="71.6" fill="#000000" font-family="Trebuchet MS" font-size="14">libelle</text>
	<text x="14" y="89.6" fill="#000000" font-family="Trebuchet MS" font-size="14">prix</text>
	<text x="14" y="107.6" fill="#000000" font-family="Trebuchet MS" font-size="14">description</text>
	<text x="14" y="125.6" fill="#000000" font-family="Trebuchet MS" font-size="14">duree</text>
</g>

<!-- Entity FAMILLE -->
<g>
	<g>
		<rect x="35" y="235" width="64" height="26" fill="#a6dba0" stroke="none" stroke-width="0" opacity="1"/>
		<rect x="35" y="261" width="64" height="44" fill="#d9f0d3" stroke="none" stroke-width="0" opacity="1"/>
		<rect x="35" y="235" width="64" height="70" fill="none" stroke="#5aae61" stroke-width="1.5" opacity="1"/>
		<line x1="35" y1="261" x2="99" y2="261" stroke="#5aae61" stroke-width="1"/>
	</g>
	<text x="41" y="253.6" fill="#000000" font-family="Trebuchet MS" font-size="14">FAMILLE</text>
	<text x="40" y="279.6" fill="#000000" font-family="Trebuchet MS" font-size="14">id</text>
	<line x1="40" y1="282" x2="53" y2="282" stroke="#000000" stroke-width="1"/>
	<text x="40" y="297.6" fill="#000000" font-family="Trebuchet MS" font-size="14">pere</text>
</g>

<!-- Entity COMPTE -->
<g>
	<g>
		<rect x="30" y="407" width="74" height="26" fill="#a6dba0" stroke="none" stroke-width="0" opacity="1"/>
		<rect x="30" y="433" width="74" height="116" fill="#d9f0d3" stroke="none" stroke-width="0" opacity="1"/>
		<rect x="30" y="407" width="74" height="142" fill="none" stroke="#5aae61" stroke-width="1.5" opacity="1"/>
		<line x1="30" y1="433" x2="104" y2="433" stroke="#5aae61" stroke-width="1"/>
	</g>
	<text x="40" y="425.6" fill="#000000" font-family="Trebuchet MS" font-size="14">COMPTE</text>
	<text x="35" y="451.6" fill="#000000" font-family="Trebuchet MS" font-size="14">uuid</text>
	<line x1="35" y1="454" x2="64" y2="454" stroke="#000000" stroke-width="1"/>
	<text x="35" y="469.6" fill="#000000" font-family="Trebuchet MS" font-size="14">nom</text>
	<text x="35" y="487.6" fill="#000000" font-family="Trebuchet MS" font-size="14">prenom</text>
	<text x="35" y="505.6" fill="#000000" font-family="Trebuchet MS" font-size="14">mail</text>
	<text x="35" y="523.6" fill="#000000" font-family="Trebuchet MS" font-size="14">naissance</text>
	<text x="35" y="541.6" fill="#000000" font-family="Trebuchet MS" font-size="14">tel</text>
</g>

<!-- Entity MENBRE_FAMILLE -->
<g>
	<g>
		<rect x="136" y="425" width="122" height="26" fill="#a6dba0" stroke="none" stroke-width="0" opacity="1"/>
		<rect x="136" y="451" width="122" height="80" fill="#d9f0d3" stroke="none" stroke-width="0" opacity="1"/>
		<rect x="136" y="425" width="122" height="106" fill="none" stroke="#5aae61" stroke-width="1.5" opacity="1"/>
		<line x1="136" y1="451" x2="258" y2="451" stroke="#5aae61" stroke-width="1"/>
	</g>
	<text x="141" y="443.6" fill="#000000" font-family="Trebuchet MS" font-size="14">MENBRE_FAMILLE</text>
	<text x="141" y="469.6" fill="#000000" font-family="Trebuchet MS" font-size="14">uuid</text>
	<line x1="141" y1="472" x2="170" y2="472" stroke="#000000" stroke-width="1"/>
	<text x="141" y="487.6" fill="#000000" font-family="Trebuchet MS" font-size="14">nom</text>
	<text x="141" y="505.6" fill="#000000" font-family="Trebuchet MS" font-size="14">prenom</text>
	<text x="141" y="523.6" fill="#000000" font-family="Trebuchet MS" font-size="14">naissance</text>
</g>
</svg>